<?xml version="1.0" encoding="utf-8"?>
<!-- Generator: Adobe Illustrator 22.0.0, SVG Export Plug-In . SVG Version: 6.00 Build 0)  -->
<svg version="1.1" id="Layer_1" xmlns="http://www.w3.org/2000/svg" xmlns:xlink="http://www.w3.org/1999/xlink" x="0px" y="0px"
	 viewBox="0 0 152 165" style="enable-background:new 0 0 152 165;" xml:space="preserve">
<style type="text/css">
	.st0{fill:#FCFCFC;}
	.st1{fill:#FFFFFF;}
</style>
<g>
	<g>
		<path class="st0" d="M51.8,65.1l9.7,27.5h0.4l9.7-27.5h4.2l-12,32.7h-4.1l-12-32.7H51.8z"/>
		<path class="st0" d="M98.8,73.2c-0.2-1.6-1-2.9-2.3-3.8c-1.4-0.9-3-1.3-5-1.3c-1.4,0-2.7,0.2-3.8,0.7c-1.1,0.5-1.9,1.1-2.5,1.9
			c-0.6,0.8-0.9,1.8-0.9,2.8c0,0.9,0.2,1.6,0.6,2.2c0.4,0.6,1,1.1,1.6,1.5c0.7,0.4,1.4,0.7,2.1,1c0.7,0.3,1.4,0.5,2,0.6l3.3,0.9
			c0.9,0.2,1.8,0.5,2.9,0.9c1,0.4,2.1,0.9,3,1.6s1.8,1.5,2.4,2.6c0.6,1.1,0.9,2.3,0.9,3.9c0,1.8-0.5,3.4-1.4,4.8
			c-0.9,1.4-2.3,2.6-4,3.4c-1.8,0.8-3.9,1.3-6.4,1.3c-2.3,0-4.4-0.4-6.1-1.1c-1.7-0.8-3.1-1.8-4-3.2c-1-1.4-1.5-2.9-1.7-4.7h4.1
			c0.1,1.2,0.5,2.3,1.3,3.1c0.7,0.8,1.7,1.4,2.8,1.8c1.1,0.4,2.3,0.6,3.6,0.6c1.5,0,2.9-0.2,4.1-0.7c1.2-0.5,2.2-1.2,2.9-2.1
			c0.7-0.9,1.1-1.9,1.1-3.1c0-1.1-0.3-2-0.9-2.7s-1.4-1.2-2.4-1.7c-1-0.4-2.1-0.8-3.2-1.1l-4-1.2c-2.6-0.7-4.6-1.8-6.1-3.1
			c-1.5-1.4-2.2-3.1-2.2-5.4c0-1.8,0.5-3.4,1.5-4.8c1-1.4,2.3-2.4,4-3.2c1.7-0.8,3.6-1.1,5.7-1.1c2.1,0,4,0.4,5.6,1.1
			c1.6,0.8,2.9,1.8,3.9,3.1c1,1.3,1.5,2.8,1.5,4.4H98.8z"/>
	</g>
</g>
<path class="st1" d="M76-0.2L1,40.7v82.7l75,40l75-40V41.1L76-0.2z M141.2,117.2L76,151.9l-65.2-34.8V45.3L76,9.7l65.2,35.9V117.2z"
	/>
</svg>
